<?xml version="1.0" encoding="utf-8"?>
<!-- Generator: Adobe Illustrator 16.0.0, SVG Export Plug-In . SVG Version: 6.00 Build 0)  -->
<!DOCTYPE svg PUBLIC "-//W3C//DTD SVG 1.1//EN" "http://www.w3.org/Graphics/SVG/1.1/DTD/svg11.dtd">
<svg version="1.1" id="Layer_1" xmlns="http://www.w3.org/2000/svg" xmlns:xlink="http://www.w3.org/1999/xlink" x="0px" y="0px"
	 width="313.155px" height="232.789px" viewBox="0 0 313.155 232.789" enable-background="new 0 0 313.155 232.789"
	 xml:space="preserve">
<path fill-rule="evenodd" clip-rule="evenodd" fill="#FFFFFF" d="M81.99,84.354l-1.624-29.2l50.292-37.31l3.242,51.099L172.835,36.5
	l1.621,40.554l29.201,8.922c4.055-8.922,13.787-8.92,25.954-8.92c7.3,6.489,15.411,10.545,16.222,20.278
	c3.246-6.492,13.789-17.033,29.2-18.655c9.734,1.622,22.711,8.922,24.334,20.277l3.246,69.755l-44.611,38.119l-1.624-21.898
	c-6.487,6.49-12.168,13.791-26.767,17.035c-10.544-3.248-19.466-3.244-20.278-15.412l-34.877,22.709l-1.621-22.711L133.9,211.698
	l-1.621-25.146l-43.801,28.391l-2.432-26.768l-44.702,22.754c-11.25,4.549-19.994,0.637-25.933-8.963l-5.678-87.601l42.246-32.444
	l1.621,23.522L81.99,84.354z"/>
<path fill-rule="evenodd" clip-rule="evenodd" fill="#00AEEF" d="M81.99,84.355l-1.624-29.2l50.292-37.31l3.242,51.098L172.835,36.5
	l1.621,40.553l29.201,8.923c4.055-8.923,13.788-8.92,25.954-8.92c7.3,6.488,15.41,10.545,16.222,20.277
	c3.246-6.491,13.789-17.032,29.2-18.655c9.734,1.623,22.711,8.923,24.334,20.278l3.246,69.754l-44.611,38.119l-1.624-21.899
	c-6.487,6.491-12.167,13.791-26.767,17.034c-10.544-3.245-19.467-3.243-20.278-15.41l-34.877,22.71l-1.621-22.711L133.9,211.699
	l-1.621-25.146l-43.801,28.39l-2.432-26.768l-44.611,22.711c-12.167,4.865-20.346,0.002-26.024-8.922l-5.678-87.598l42.246-32.444
	l1.621,23.521L81.99,84.355z M70.634,51.911l1.621,26.767l-8.921,7.298l-2.432-24.333L0,111.122l5.678,95.709
	c6.85,15.049,25.84,17.664,39,13.787l34.068-17.033l3.244,29.203l41.367-27.578l3.243,23.521l37.312-25.956l3.245,25.956
	l39.743-26.767c14.6,12.166,30.011,11.355,42.179,3.246l2.432,20.276l61.645-52.723l-4.866-80.297
	c-1.622-2.434-10.544-17.845-31.633-21.9c-14.601-1.622-24.334,8.111-28.39,11.356c-5.678-3.245-6.488-11.357-23.521-14.6
	c-7.3,0-17.845,0.81-26.768,8.109l-14.599-3.245l-3.246-51.097l-36.499,28.386L140.39,0L70.634,51.911z"/>
<path fill-rule="evenodd" clip-rule="evenodd" fill="#ED1C24" d="M45.489,97.333l-25.144,19.464l4.057,77.866
	c1.621,8.111,12.976,7.302,19.465,5.68L78.746,182.5c3.244-3.246,8.109-6.489,8.109-10.545L81.99,94.898l-25.146,17.845
	l2.435,48.667c-2.435,6.488-6.49,8.111-9.735,2.435L45.489,97.333z"/>
<polygon fill-rule="evenodd" clip-rule="evenodd" fill="#ED1C24" points="90.913,59.21 99.022,197.909 128.224,175.198 
	120.923,35.687 "/>
<polygon fill-rule="evenodd" clip-rule="evenodd" fill="#ED1C24" points="133.9,77.053 163.912,52.724 163.912,82.732 
	193.922,91.654 167.968,126.533 169.589,175.199 140.39,197.91 "/>
<path fill-rule="evenodd" clip-rule="evenodd" fill="#ED1C24" d="M179.322,128.154l28.39-38.121
	c15.411-8.11,22.71,0.812,26.767,2.435l1.623,18.654l-15.412,18.655l-13.79-12.98l0.813,57.59l-26.766,20.276L179.322,128.154z"/>
<path fill-rule="evenodd" clip-rule="evenodd" fill="#ED1C24" d="M288.823,98.955l4.055,68.131l-27.577,21.09l-1.623-24.334
	l-23.521,25.955c-9.734,2.436-25.146,6.491-25.146-15.408c-0.811-13.79,9.734-35.689,21.089-47.855
	c8.112-11.354,17.033-23.522,25.956-32.443C276.657,80.301,290.444,92.467,288.823,98.955 M262.057,117.609
	c-4.868,0.813-12.166,4.866-16.224,15.412c-0.812,5.678-0.811,12.166-0.812,19.467c7.301,8.111,11.356,8.922,17.035,0.81V117.609z"
	/>
</svg>
